{
  "accessors": [
    {
      "bufferView": 2,
      "componentType": 5126,
      "count": 65532,
      "max": [
        0.011359999887645245,
        2.0568099021911621,
        0.89806002378463745
      ],
      "min": [
        -2.0236899852752686,
        -2.0611400604248047,
        -0.89806002378463745
      ],
      "type": "VEC3"
    },
    {
      "bufferView": 2,
      "byteOffset": 786384,
      "componentType": 5126,
      "count": 65532,
      "max": [
        0.98553484678268433,
        1,
        1
      ],
      "min": [
        -0.99367159605026245,
        -0.99944442510604858,
        -0.99999541044235229
      ],
      "type": "VEC3"
    },
    {
      "bufferView": 3,
      "componentType": 5126,
      "count": 65532,
      "max": [
        1,
        0.87551277875900269,
        0.99984800815582275,
        1
      ],
      "min": [
        -0.11796985566616058,
        -0.97978514432907104,
        -0.99984800815582275,
        -1
      ],
      "type": "VEC4"
    },
    {
      "bufferView": 1,
      "componentType": 5126,
      "count": 65532,
      "max": [
        0.75507998466491699,
        0.98563998937606812
      ],
      "min": [
        0.28009000420570374,
        0.024499999359250069
      ],
      "type": "VEC2"
    },
    {
      "bufferView": 0,
      "componentType": 5125,
      "count": 379725,
      "max": [
        65531
      ],
      "min": [
        0
      ],
      "type": "SCALAR"
    },
    {
      "bufferView": 2,
      "byteOffset": 1572768,
      "componentType": 5126,
      "count": 10064,
      "max": [
        -0.0015099999727681279,
        0.0065899998880922794,
        -0.014639999717473984
      ],
      "min": [
        -2.0235500335693359,
        -2.0611400604248047,
        -0.89555001258850098
      ],
      "type": "VEC3"
    },
    {
      "bufferView": 2,
      "byteOffset": 1693536,
      "componentType": 5126,
      "count": 10064,
      "max": [
        0.92456483840942383,
        0.97426927089691162,
        0.99997514486312866
      ],
      "min": [
        -0.99367159605026245,
        -0.98769307136535645,
        0.026150554418563843
      ],
      "type": "VEC3"
    },
    {
      "bufferView": 3,
      "byteOffset": 1048512,
      "componentType": 5126,
      "count": 10064,
      "max": [
        0.9999997615814209,
        0.76074880361557007,
        0.9969707727432251,
        1
      ],
      "min": [
        -0.11796985566616058,
        -0.70588839054107666,
        -0.99055153131484985,
        -1
      ],
      "type": "VEC4"
    },
    {
      "bufferView": 1,
      "byteOffset": 524256,
      "componentType": 5126,
      "count": 10064,
      "max": [
        0.75207000970840454,
        0.50710999965667725
      ],
      "min": [
        0.28011998534202576,
        0.024499999359250069
      ],
      "type": "VEC2"
    },
    {
      "bufferView": 0,
      "byteOffset": 1518900,
      "componentType": 5125,
      "count": 44688,
      "max": [
        10063
      ],
      "min": [
        0
      ],
      "type": "SCALAR"
    },
    {
      "bufferView": 2,
      "byteOffset": 1814304,
      "componentType": 5126,
      "count": 131,
      "max": [
        1,
        1,
        0
      ],
      "min": [
        -1,
        -1,
        -0.28435999155044556
      ],
      "type": "VEC3"
    },
    {
      "bufferView": 2,
      "byteOffset": 1815876,
      "componentType": 5126,
      "count": 131,
      "max": [
        1,
        1,
        1
      ],
      "min": [
        -1,
        -1,
        -1
      ],
      "type": "VEC3"
    },
    {
      "bufferView": 3,
      "byteOffset": 1209536,
      "componentType": 5126,
      "count": 131,
      "max": [
        1,
        1,
        7.334330994933533e-21,
        1
      ],
      "min": [
        -1,
        -1,
        -7.7896502261864953e-06,
        1
      ],
      "type": "VEC4"
    },
    {
      "bufferView": 1,
      "byteOffset": 604768,
      "componentType": 5126,
      "count": 131,
      "max": [
        14.311059951782227,
        5.499000072479248
      ],
      "min": [
        -13.311059951782227,
        -4.499000072479248
      ],
      "type": "VEC2"
    },
    {
      "bufferView": 0,
      "byteOffset": 1697652,
      "componentType": 5125,
      "count": 378,
      "max": [
        130
      ],
      "min": [
        0
      ],
      "type": "SCALAR"
    }
  ],
  "asset": {
    "extras": {
      "author": "JuanG3D (https://sketchfab.com/juang3d)",
      "license": "CC-BY-4.0 (http://creativecommons.org/licenses/by/4.0/)",
      "source": "https://sketchfab.com/models/1e6147c412c749139680b707c1d9d37e",
      "title": "Cave"
    },
    "generator": "Sketchfab-3.18.6",
    "version": "2.0"
  },
  "bufferViews": [
    {
      "buffer": 0,
      "byteLength": 1699164,
      "byteOffset": 0,
      "name": "floatBufferViews",
      "target": 34963
    },
    {
      "buffer": 0,
      "byteLength": 605816,
      "byteOffset": 1699164,
      "byteStride": 8,
      "name": "floatBufferViews",
      "target": 34962
    },
    {
      "buffer": 0,
      "byteLength": 1817448,
      "byteOffset": 2304980,
      "byteStride": 12,
      "name": "floatBufferViews",
      "target": 34962
    },
    {
      "buffer": 0,
      "byteLength": 1211632,
      "byteOffset": 4122428,
      "byteStride": 16,
      "name": "floatBufferViews",
      "target": 34962
    }
  ],
  "buffers": [
    {
      "byteLength": 5334060,
      "uri": "scene.bin"
    }
  ],
  "images": [
    {
      "uri": "textures/aagua_baseColor.jpeg"
    },
    {
      "uri": "textures/Cave_baseColor.jpg"
    }
  ],
  "materials": [
    {
      "alphaMode": "BLEND",
      "doubleSided": true,
      "emissiveFactor": [
        0,
        0,
        0
      ],
      "name": "aagua",
      "pbrMetallicRoughness": {
        "baseColorFactor": [
          1,
          1,
          1,
          0.91645697829999995
        ],
        "baseColorTexture": {
          "index": 0,
          "texCoord": 0
        },
        "metallicFactor": 1,
        "roughnessFactor": 1
      }
    },
    {
      "doubleSided": false,
      "emissiveFactor": [
        0,
        0,
        0
      ],
      "name": "Cave",
      "pbrMetallicRoughness": {
        "baseColorFactor": [
          1,
          1,
          1,
          1
        ],
        "baseColorTexture": {
          "index": 1,
          "texCoord": 0
        },
        "metallicFactor": 0,
        "roughnessFactor": 0.68102729849999999
      }
    }
  ],
  "meshes": [
    {
      "name": "Plane.001_0",
      "primitives": [
        {
          "attributes": {
            "NORMAL": 1,
            "POSITION": 0,
            "TANGENT": 2,
            "TEXCOORD_0": 3
          },
          "indices": 4,
          "material": 1,
          "mode": 4
        }
      ]
    },
    {
      "name": "Plane.001_0",
      "primitives": [
        {
          "attributes": {
            "NORMAL": 6,
            "POSITION": 5,
            "TANGENT": 7,
            "TEXCOORD_0": 8
          },
          "indices": 9,
          "material": 1,
          "mode": 4
        }
      ]
    },
    {
      "name": "Circle_0",
      "primitives": [
        {
          "attributes": {
            "NORMAL": 11,
            "POSITION": 10,
            "TANGENT": 12,
            "TEXCOORD_0": 13
          },
          "indices": 14,
          "material": 0,
          "mode": 4
        }
      ]
    }
  ],
  "nodes": [
    {
      "children": [
        1
      ],
      "name": "RootNode (gltf orientation matrix)",
      "rotation": [
        -0.70710678118654746,
        -0,
        -0,
        0.70710678118654757
      ]
    },
    {
      "children": [
        2
      ],
      "name": "RootNode (model correction matrix)"
    },
    {
      "children": [
        3,
        6
      ],
      "name": "Root"
    },
    {
      "children": [
        4,
        5
      ],
      "matrix": [
        10,
        0,
        0,
        0,
        0,
        10,
        0,
        0,
        0,
        0,
        10,
        0,
        0,
        0,
        -0,
        1
      ],
      "name": "Plane.001"
    },
    {
      "mesh": 0,
      "name": "Plane.001_0"
    },
    {
      "mesh": 1,
      "name": "Plane.001_0"
    },
    {
      "children": [
        7
      ],
      "matrix": [
        31.673400000000001,
        0,
        0,
        0,
        0,
        31.673400000000001,
        0,
        0,
        0,
        0,
        31.673400000000001,
        0,
        -10.114269999999998,
        0,
        0,
        1
      ],
      "name": "Circle"
    },
    {
      "mesh": 2,
      "name": "Circle_0"
    }
  ],
  "samplers": [
    {
      "magFilter": 9729,
      "minFilter": 9987,
      "wrapS": 10497,
      "wrapT": 10497
    }
  ],
  "scene": 0,
  "scenes": [
    {
      "name": "OSG_Scene",
      "nodes": [
        0
      ]
    }
  ],
  "textures": [
    {
      "sampler": 0,
      "source": 0
    },
    {
      "sampler": 0,
      "source": 1
    }
  ]
}

